<?xml version="1.0" encoding="UTF-8"?> <svg xmlns="http://www.w3.org/2000/svg" width="368" height="101" viewBox="0 0 368 101" fill="none"> <path d="M230.791 54.396C230.781 54.4091 230.772 54.4247 230.763 54.4394C230.772 54.4534 230.781 54.4679 230.789 54.482L230.791 54.396Z" fill="white"></path> <path d="M230.737 54.482C230.744 54.4679 230.753 54.4534 230.763 54.4394C230.753 54.4247 230.744 54.4091 230.735 54.396L230.737 54.482Z" fill="white"></path> <path d="M188.623 40.8116C187.153 42.5121 185.335 43.8049 183.105 44.744C180.873 45.6809 178.291 46.1512 175.299 46.1512C172.304 46.1512 169.663 45.6809 167.375 44.744C165.144 43.8049 163.324 42.5121 161.859 40.8116C160.389 39.1669 159.335 37.2304 158.687 34.9413C157.985 32.7107 157.633 30.3067 157.633 27.7227V1.84002C157.633 0.961353 158.22 0.373352 159.099 0.373352H163.792C164.673 0.373352 165.263 0.961353 165.263 1.84002V27.0173C165.263 31.4787 166.201 34.4693 168.02 36.3492C169.84 38.2268 172.245 39.1669 175.299 39.1669C176.764 39.1669 178.175 38.934 179.407 38.4637C180.64 38.0523 181.637 37.3476 182.515 36.3492C183.339 35.4693 184.043 34.1787 184.569 32.5933C185.04 31.0693 185.276 29.192 185.276 27.0173V1.84002C185.276 0.961353 185.863 0.373352 186.743 0.373352H191.437C192.32 0.373352 192.903 0.961353 192.903 1.84002V27.7227C192.903 30.2467 192.552 32.652 191.908 34.9413C191.204 37.1711 190.087 39.1069 188.623 40.8116Z" fill="#5BC4BA"></path> <path d="M139.509 46.0159C135.341 46.4263 131.292 46.132 127.243 45.0173L126.597 44.8413C125.6 44.5497 124.601 44.1945 123.545 43.7851C122.84 43.4908 122.193 42.6711 122.607 41.7893L124.132 38.2673C124.424 37.5044 125.305 37.2112 126.011 37.5044C129.943 39.0903 133.932 39.8517 138.1 39.5585C141.737 39.3831 144.967 37.6216 144.967 33.9813C144.967 32.8107 144.733 31.8107 144.264 30.9907C143.735 30.228 143.032 29.4653 142.151 28.8187C141.153 28.1133 140.039 27.5293 138.923 27.1173L135.049 25.6507C133.345 25.12 131.763 24.4747 130.415 23.8307C128.945 23.1267 127.653 22.3053 126.541 21.3667C125.365 20.308 124.484 19.136 123.84 17.844C123.195 16.552 122.899 14.9094 122.899 12.9734C122.899 8.98002 124.309 5.87201 127.067 3.70002C127.947 2.99468 128.945 2.40934 129.943 1.99734C134.168 0.0613441 138.923 0.11869 143.323 0.82402C143.441 0.884022 143.559 0.884014 143.735 0.884014C144.733 1.11735 145.672 1.35334 146.668 1.64668C147.375 1.88001 148.137 2.70135 147.727 3.58401L146.493 7.22135C146.2 7.98402 145.377 8.33735 144.675 8.10135C142.56 7.45468 140.449 7.16269 138.277 7.10268C136.221 7.10268 134.284 7.22135 132.701 8.33735C132.113 8.74669 131.587 9.27601 131.116 9.98001C130.765 10.6253 130.589 11.388 130.589 12.268C130.589 13.324 130.765 14.1467 131.176 14.7934C131.528 15.4374 132.113 16.0253 132.936 16.6707C133.759 17.2573 134.696 17.7867 135.753 18.196L139.393 19.664C141.328 20.3667 143.091 21.132 144.675 21.8947C146.375 22.656 147.785 23.596 148.957 24.6507C150.192 25.7107 151.129 26.9987 151.776 28.5254C152.481 30.0507 152.831 31.8693 152.831 33.9253C152.831 37.856 151.305 40.9091 148.312 43.0227C145.732 44.9012 142.501 45.72 139.509 46.0159Z" fill="#BE83AA"></path> <path d="M140.031 99.9372C135.873 100.347 131.831 100.057 127.791 98.9414L127.145 98.767C126.152 98.4731 125.155 98.1216 124.101 97.7132C123.397 97.42 122.756 96.6003 123.163 95.7216L124.688 92.208C124.979 91.4466 125.859 91.1534 126.559 91.4466C130.484 93.0279 134.465 93.7894 138.624 93.496C142.255 93.3216 145.475 91.5627 145.475 87.932C145.475 86.7602 145.241 85.7638 144.773 84.9455C144.247 84.1851 143.541 83.4227 142.665 82.7774C141.668 82.0774 140.556 81.4908 139.444 81.0815L135.577 79.6159C133.88 79.0908 132.297 78.444 130.953 77.8012C129.487 77.0987 128.201 76.2799 127.088 75.3414C125.917 74.2883 125.037 73.1148 124.395 71.8294C123.751 70.5388 123.457 68.9003 123.457 66.9695C123.457 62.9856 124.863 59.882 127.615 57.7138C128.491 57.0122 129.487 56.4263 130.484 56.0173C134.701 54.0826 139.444 54.1419 143.835 54.844C143.952 54.9039 144.071 54.9039 144.247 54.9039C145.241 55.1383 146.179 55.3727 147.172 55.6643C147.876 55.9003 148.637 56.7179 148.228 57.5965L146.996 61.2268C146.705 61.9888 145.884 62.3403 145.184 62.1069C143.075 61.4612 140.967 61.1711 138.8 61.1112C136.751 61.1112 134.816 61.2268 133.236 62.3403C132.651 62.7518 132.121 63.2788 131.655 63.9815C131.304 64.6268 131.128 65.3867 131.128 66.2638C131.128 67.3184 131.304 68.1388 131.715 68.784C132.067 69.4279 132.651 70.0132 133.472 70.6575C134.289 71.244 135.227 71.7679 136.281 72.1799L139.912 73.644C141.844 74.3466 143.6 75.1064 145.184 75.8695C146.881 76.632 148.287 77.567 149.457 78.6227C150.685 79.6747 151.623 80.9638 152.268 82.4851C152.971 84.0107 153.323 85.8242 153.323 87.8722C153.323 91.7987 151.801 94.8424 148.812 96.9507C146.239 98.8242 143.016 99.6466 140.031 99.9372Z" fill="#5BC4BA"></path> <path d="M157.475 78.208V76.2747H157.533C157.651 73.055 158.177 70.184 159.173 67.7268C160.285 64.856 161.808 62.396 163.681 60.4638C165.672 58.4127 167.897 56.9498 170.417 55.955C173.403 54.7242 176.564 54.257 179.845 54.431C184.529 54.608 189.391 55.8378 193.431 58.2388C194.132 58.6487 194.484 59.6435 193.84 60.3466C193.021 61.2815 192.259 62.3378 191.496 63.508C191.029 64.2722 190.267 64.2722 189.8 64.0935C189.505 63.92 189.329 63.8612 189.096 63.8012C188.98 63.6867 188.861 63.5679 188.687 63.508C186.345 62.2788 183.827 61.4602 181.191 61.1659C176.508 60.6383 172.053 61.8102 168.949 65.3826C167.781 66.7894 166.844 68.544 166.141 70.5946C165.496 72.6455 165.208 74.7534 165.208 77.2706C165.208 79.7894 165.496 81.8372 166.141 83.8867C166.844 85.9388 167.781 87.6935 168.949 89.0987C170.184 90.5064 171.647 91.5602 173.343 92.3216C175.744 93.4336 178.437 93.6091 181.191 93.3159C183.768 93.0252 186.403 92.3216 188.687 90.9747C188.861 90.9148 188.98 90.8003 189.096 90.6799C189.329 90.6216 189.505 90.5638 189.8 90.3883C190.267 90.2122 191.029 90.2122 191.496 90.9747C192.259 92.1455 193.021 93.2012 193.84 94.1372C194.484 94.8971 194.132 95.8362 193.431 96.2455C189.391 98.7612 184.529 99.8774 179.845 100.052C176.564 100.106 173.403 99.7586 170.417 98.5294C167.897 97.5346 165.672 96.0695 163.681 94.0216C161.808 92.0867 160.285 89.6279 159.173 86.7586C158.177 84.2987 157.651 81.4279 157.533 78.208H157.475Z" fill="#B2C147"></path> <path d="M229.552 100.073C228.675 100.073 228.092 99.4851 228.092 98.6107V79.5758H207.944V98.6107C207.944 99.4851 207.3 100.073 206.54 100.073H201.915C201.036 100.073 200.448 99.4851 200.448 98.6107V55.8012C200.448 55.0403 201.036 54.396 201.915 54.396H206.54C207.3 54.396 207.944 55.0403 207.944 55.8012V72.844H228.092V55.8012C228.092 55.0403 228.675 54.396 229.552 54.396H234.179C234.94 54.396 235.585 55.0403 235.585 55.8012V98.7851C235.409 99.0788 235.293 99.255 235.117 99.4279C234.764 99.8398 234.473 100.073 234.179 100.073H229.552Z" fill="#BE83AA"></path> <path d="M274.079 65.4064C273.2 64.4122 272.263 63.5894 271.151 62.9455C266.817 60.3102 259.791 60.4263 255.517 62.9455C254.403 63.5894 253.409 64.4122 252.589 65.4064C251.357 66.8107 250.421 68.5091 249.776 70.5575C249.133 72.6091 248.78 74.8336 248.78 77.2346C248.78 79.6346 249.133 81.8612 249.776 83.9107C250.421 85.9586 251.357 87.6586 252.589 89.0654C253.409 90.0602 254.403 90.8788 255.517 91.5242C260.025 94.3346 266.467 93.6894 271.151 91.5242C272.263 90.8788 273.2 90.0602 274.079 89.0654C275.248 87.6586 276.187 85.9586 276.887 83.9107C277.535 81.8612 277.827 79.7534 277.827 77.2346C277.827 74.7174 277.535 72.6091 276.887 70.5575C276.187 68.5091 275.248 66.8107 274.079 65.4064ZM272.615 98.5507C269.627 99.7227 266.523 100.073 263.303 100.073C260.199 100.073 256.979 99.7227 253.992 98.5507C251.473 97.555 249.249 96.032 247.317 94.043C245.384 92.0518 243.864 89.6492 242.751 86.7799C241.636 84.0268 241.225 81.0414 241.049 77.5883V77.2346V76.9414C241.109 73.6039 241.636 70.5012 242.751 67.6894C244.799 62.3012 248.663 58.0288 253.992 55.917C256.979 54.7476 260.199 54.396 263.303 54.396C266.523 54.396 269.627 54.7476 272.615 55.917C277.827 58.0288 281.868 62.3596 283.916 67.6894C285.028 70.4414 285.323 73.4268 285.555 76.8851V77.0586V77.2346V77.5279C285.497 80.9826 284.912 84.0851 283.916 86.7799C281.808 92.1679 277.941 96.4424 272.615 98.5507Z" fill="#F27930"></path> <path d="M323.257 65.4064C322.377 64.4122 321.441 63.5894 320.327 62.9455C315.996 60.3102 308.971 60.4263 304.696 62.9455C303.583 63.5894 302.584 64.4122 301.764 65.4064C300.536 66.8107 299.599 68.5091 298.956 70.5575C298.312 72.6091 297.96 74.8336 297.96 77.2346C297.96 79.6346 298.312 81.8612 298.956 83.9107C299.599 85.9586 300.536 87.6586 301.764 89.0654C302.584 90.0602 303.583 90.8788 304.696 91.5242C309.205 94.3346 315.645 93.6894 320.327 91.5242C321.441 90.8788 322.377 90.0602 323.257 89.0654C324.428 87.6586 325.367 85.9586 326.068 83.9107C326.709 81.8612 327.005 79.7534 327.005 77.2346C327.005 74.7174 326.709 72.6091 326.068 70.5575C325.367 68.5091 324.428 66.8107 323.257 65.4064ZM321.793 98.5507C318.805 99.7227 315.701 100.073 312.481 100.073C309.377 100.073 306.156 99.7227 303.172 98.5507C300.655 97.555 298.428 96.032 296.496 94.043C294.561 92.0518 293.04 89.6492 291.928 86.7799C290.817 84.0268 290.405 81.0414 290.229 77.5883V77.2346V76.9414C290.289 73.6039 290.817 70.5012 291.928 67.6894C293.977 62.3012 297.841 58.0288 303.172 55.917C306.156 54.7476 309.377 54.396 312.481 54.396C315.701 54.396 318.805 54.7476 321.793 55.917C327.005 58.0288 331.045 62.3596 333.093 67.6894C334.207 70.4414 334.499 73.4268 334.737 76.8851V77.0586V77.2346V77.5279C334.677 80.9826 334.091 84.0851 333.093 86.7799C330.989 92.1679 327.121 96.4424 321.793 98.5507Z" fill="#5BC4BA"></path> <path d="M352.417 100.073C350.249 100.073 347.968 100.134 345.86 99.4851C345.099 99.2549 344.393 98.9012 343.636 98.4919C341.935 97.2638 340.883 95.096 340.883 92.9883V55.8612C340.883 54.982 341.528 54.396 342.291 54.396H346.856C347.732 54.396 348.32 54.982 348.32 55.8612V91.4654C348.32 92.108 348.495 92.5216 348.788 92.755C349.024 92.9279 349.491 93.1039 350.136 93.2216C350.428 93.2815 350.72 93.3398 350.956 93.3398H366.357C367.233 93.3398 367.819 93.9268 367.819 94.8028V98.6107C367.819 99.4851 367.233 100.073 366.357 100.073H352.417Z" fill="#B2C147"></path> <path d="M233.621 0.373348H228.995C228.116 0.373348 227.535 1.02001 227.535 1.78001V32.9413H227.531L207.18 1.04667C207.135 0.981339 207.099 0.940018 207.057 0.890682C206.801 0.572018 206.419 0.373348 205.924 0.373348H201.296C201.004 0.373348 200.712 0.608013 200.359 1.02001C200.184 1.19601 200.068 1.37201 199.891 1.66401V44.745C199.891 45.508 200.537 46.1523 201.296 46.1523H205.924C206.804 46.1523 207.387 45.508 207.387 44.745V13.5853L227.739 45.4793C227.785 45.5445 227.823 45.5861 227.864 45.6356C228.12 45.9533 228.504 46.1523 228.995 46.1523H233.621C233.915 46.1523 234.208 45.9169 234.559 45.5055C234.735 45.3309 234.852 45.1523 235.028 44.8612V1.78001C235.028 1.02001 234.383 0.373348 233.621 0.373348Z" fill="#B2C147"></path> <path d="M16.9927 83.8799C22.1516 81.8883 25.9927 82.8012 27.5068 83.2003C27.6828 83.3533 27.9718 83.5575 28.2817 83.7653C28.5942 84.0304 28.9068 84.2919 29.2437 84.5612C27.3677 84.0585 17.7906 82.096 11.4521 92.3012L10.8505 89.6653C12.6984 86.6003 14.8469 84.8549 16.9927 83.8799ZM30.9224 79.7747C35.1031 81.6919 40.3806 83.4216 46.656 84.1388V58.1408C46.656 57.9924 46.628 57.8544 46.612 57.7112C46.396 55.8569 44.8373 54.4127 42.9276 54.4127H4.54585C2.48598 54.4127 0.81665 56.0825 0.81665 58.1408V96.5241C0.81665 98.5825 2.48598 100.255 4.54585 100.255H42.9276C44.9853 100.255 46.656 98.5825 46.656 96.5241V88.8919C40.8062 87.7028 36.0604 85.7465 32.2713 83.5945C31.7088 83.2757 31.1724 82.9517 30.65 82.6252C23.7636 78.3121 20.524 73.5747 19.9562 72.6851C19.9354 72.6627 19.912 72.644 19.8896 72.6227C19.8609 72.6039 19.8338 72.5867 19.8052 72.5695C20.8713 75.6091 22.6489 78.1747 24.5614 80.3012C24.8948 80.6721 25.2307 81.0268 25.5683 81.3705C24.7453 81.2612 23.7464 81.1612 22.6541 81.1601C18.5588 81.1241 12.8114 82.6159 8.97292 89.7679C5.89638 77.8252 5.72185 73.2397 5.72185 73.2397C5.72185 73.2397 8.84785 64.9039 18.3973 68.4653C20.9234 60.9127 28.5292 62.7711 28.5292 62.7711C28.5292 62.7711 37.9312 69.5935 43.5745 71.5028C37.7333 71.6601 33.6631 74.4721 30.9224 79.7747Z" fill="#BE83AA"></path> <path d="M88.1466 42.6982C88.148 42.7086 88.1506 42.7179 88.152 42.732C88.1533 42.7294 88.1533 42.7283 88.1546 42.7283C88.096 42.2231 88.0333 41.7164 87.952 41.2179C88.028 41.7086 88.0906 42.2034 88.1466 42.6982Z" fill="#EBA317"></path> <path d="M92.2267 37.8779C91.5013 40.2788 89.816 41.7851 88.1547 42.7283C88.1533 42.7283 88.1533 42.7294 88.152 42.732C88.1507 42.7179 88.148 42.7086 88.1467 42.6982C88.0907 42.2034 88.028 41.7086 87.952 41.2179C87.4293 37.7356 86.4253 34.4147 85.0147 31.3174C85.0573 31.288 84.9533 31.3067 84.9933 31.276C83.3386 27.656 81.0507 24.2774 78.3867 21.3867C77.72 20.6734 77.0253 19.9814 76.3013 19.3147C75.9613 19.004 75.5987 18.7174 75.2467 18.4174C74.8587 18.0854 74.4853 17.74 74.0827 17.4254C72.52 16.192 70.8547 15.0774 69.116 14.112C69.0827 14.1507 69.1093 14.0494 69.076 14.0907C69.08 14.0867 69.0813 14.0854 69.084 14.0814C68.496 13.7574 67.884 13.4654 67.264 13.188C64.188 11.6707 60.876 10.5654 57.4 9.92671C60.612 3.08271 67.0027 2.78938 67.0027 2.78938C67.0027 2.78938 62.804 4.98138 66.9947 9.72805C68.1813 11.072 68.8306 12.6054 69.092 14.0707C75.4426 6.42537 82.2533 9.82271 82.2533 9.82271C82.2533 9.82271 77.992 9.80804 79.3426 15.3414C79.892 17.62 79.3827 19.7147 78.536 21.3254C78.7133 21.2494 78.892 21.1747 79.08 21.108C86.776 16.8107 91.7547 21.736 91.7547 21.736C91.7547 21.736 87.6907 20.464 87.3426 26.1507C87.2106 28.336 86.2093 30.0267 85.0307 31.2867C85.024 31.2734 85.016 31.2627 85.0093 31.248L85.0147 31.3174C93.6747 28.7187 97.54 34.5987 97.54 34.5987C97.54 34.5987 93.8773 32.4254 92.2267 37.8779ZM96.4493 0.892044H58.0867C56.028 0.892044 54.36 2.56004 54.36 4.6187V12.244C73.8093 16.2067 81.1507 28.6067 81.1507 28.6067C80.2653 27.5227 70.6307 18.8534 54.36 17V42.982C54.36 43.1304 54.3867 43.2684 54.404 43.4116C54.6187 45.2659 56.176 46.7112 58.0867 46.7112H96.4493C98.5093 46.7112 100.177 45.0403 100.177 42.982V4.6187C100.177 2.56004 98.5093 0.892044 96.4493 0.892044Z" fill="#F27930"></path> <path d="M29.736 27.0053L21.6984 27.344L30.9964 30.424L38.827 11.7067L29.736 27.0053Z" fill="#5BC4BA"></path> <path d="M18.9598 27.54C18.9937 27.36 19.1005 27.2067 19.2218 27.076C19.2385 27.064 19.2333 27.0467 19.2489 27.0254L31.3921 15.94L15.2932 26.724L17.7073 31.9507C17.8713 31.6694 18.9598 27.54 18.9598 27.54Z" fill="#5BC4BA"></path> <path d="M42.9276 0.892014H4.54478C2.48745 0.892014 0.81665 2.56268 0.81665 4.62268V43.0003C0.81665 45.0601 2.48745 46.7304 4.54478 46.7304H12.175C13.201 41.6965 14.7948 37.4836 16.5875 33.992L13.4484 27.2027L5.33638 25.224C4.94425 25.1253 4.66038 24.7907 4.62651 24.384C4.59011 23.9747 4.81145 23.592 5.17345 23.4253L40.9521 7.27201C41.1084 7.19868 41.2776 7.18801 41.4432 7.21068C41.464 7.21068 41.4693 7.20535 41.4926 7.20535C41.6776 7.23601 41.8479 7.32534 41.986 7.46534C42.0031 7.48 42.003 7.50668 42.0188 7.52802C42.0344 7.54402 42.0552 7.53868 42.0718 7.56002C42.103 7.59735 42.0874 7.65334 42.1084 7.69867C42.1786 7.82934 42.2229 7.96268 42.2281 8.12001C42.2281 8.19334 42.2229 8.25867 42.201 8.332C42.1917 8.396 42.2073 8.45734 42.1917 8.512L32.3754 31.9747C32.1838 32.4253 31.6828 32.6507 31.2254 32.504L25.0708 30.4693L19.3208 35.6813C17.913 39.9637 17.2568 43.8908 16.9328 46.7304H42.9276C43.0745 46.7304 43.2125 46.7033 43.3573 46.6877C45.2106 46.4716 46.656 44.9143 46.656 43.0003V4.62268C46.656 2.56268 44.9853 0.892014 42.9276 0.892014Z" fill="#5BC4BA"></path> <path d="M88.824 54.4325C88.82 54.4497 88.8173 54.4637 88.8133 54.4804C88.8173 54.4637 88.82 54.4497 88.824 54.4325Z" fill="#B2C147"></path> <path d="M72.6253 81.0774C72.564 81.1336 72.5227 81.1706 72.4987 81.1908C72.5347 81.1602 72.576 81.1227 72.6253 81.0774Z" fill="#E7802D"></path> <path d="M72.4613 81.2252C72.4653 81.2216 72.4693 81.22 72.4706 81.2174C72.4706 81.2184 72.4666 81.22 72.4666 81.22L72.4613 81.2252Z" fill="#E7802D"></path> <path d="M96.4493 54.6367H88.824C88.82 54.6523 88.8173 54.6684 88.8133 54.684C88.4453 56.8919 87.8387 59.0367 87.0733 61.1028C82.7093 73.8586 74.856 79.8159 72.912 81.1346C74.344 80.2788 78.3867 78.0627 82.6413 73.9003C84.016 72.555 85.596 71.6731 86.5426 71.3883C87.204 71.1883 87.904 71.0788 88.628 71.0788C92.5947 71.0788 95.812 74.2946 95.812 78.2602C95.812 79.1534 95.4667 81.0064 94.432 82.7722C92.5093 86.067 88.9787 88.8908 85.6213 90.255C75.064 94.543 62.9053 93.2268 62.9053 93.2268C62.7827 91.6908 62.9053 87.6003 63.7853 84.9799L61.6147 85.5216C61.5773 85.1294 61.5453 84.7304 61.5173 84.3279C61.528 82.2398 61.776 77.9627 63.5053 75.6122L62.0053 75.52C62.0053 75.52 62.568 69.8987 67.4387 67.3706L65.4533 66.5492C73.936 57.8831 82.224 63.2935 80.1733 69.5216C82.7187 63.2242 83.5773 58.956 84.0693 54.6367H58.0867C57.9387 54.6367 57.8 54.6643 57.6573 54.681C55.8053 54.896 54.36 56.456 54.36 58.3664V96.7279C54.36 97.2424 54.4653 97.7336 54.6533 98.1788C55.2187 99.5174 56.544 100.455 58.0867 100.455H96.4493C98.5067 100.455 100.177 98.7851 100.177 96.7268V58.3664C100.177 56.3075 98.5067 54.6367 96.4493 54.6367Z" fill="#B2C147"></path> <path d="M256.071 21.0547H264.035C264.229 21.0547 264.387 21.2134 264.387 21.408V24.88C264.387 25.076 264.229 25.2347 264.035 25.2347H256.071C255.876 25.2347 255.717 25.076 255.717 24.88V21.408C255.717 21.2134 255.876 21.0547 256.071 21.0547Z" fill="#6E6D70"></path> <path d="M355.833 21.0547H364.101C364.212 21.0547 364.303 21.1454 364.303 21.256V25.0333C364.303 25.144 364.212 25.2347 364.101 25.2347H355.833C355.723 25.2347 355.633 25.144 355.633 25.0333V21.256C355.633 21.1454 355.723 21.0547 355.833 21.0547Z" fill="#6E6D70"></path> <path d="M288.269 22.0387C288.979 21.4493 289.333 20.6147 289.333 19.532C289.333 18.4293 288.979 17.5853 288.269 16.996C287.559 16.408 286.523 16.1133 285.16 16.1133H282.021C281.712 16.1133 281.463 16.3627 281.463 16.672V22.3627C281.463 22.6707 281.712 22.9213 282.021 22.9213H285.16C286.523 22.9213 287.559 22.6267 288.269 22.0387ZM289.935 13.2853C291.215 13.8627 292.2 14.6853 292.891 15.7507C293.581 16.8133 293.928 18.0747 293.928 19.532C293.928 20.9693 293.581 22.224 292.891 23.2987C292.2 24.372 291.215 25.1947 289.935 25.7627C288.656 26.3333 287.149 26.6173 285.412 26.6173H282.021C281.712 26.6173 281.463 26.868 281.463 27.176V31.4653C281.463 31.7733 281.212 32.024 280.904 32.024H277.484C277.175 32.024 276.925 31.7733 276.925 31.4653V12.9747C276.925 12.6667 277.175 12.4173 277.484 12.4173H285.412C287.149 12.4173 288.656 12.7053 289.935 13.2853Z" fill="#6E6D70"></path> <path d="M311.293 16.996C310.583 16.408 309.545 16.1133 308.184 16.1133H304.891C304.667 16.1133 304.487 16.2947 304.487 16.5187V22.544C304.487 22.768 304.667 22.948 304.891 22.948H308.184C309.545 22.948 310.583 22.6507 311.293 22.052C312.001 21.4547 312.357 20.6147 312.357 19.532C312.357 18.4293 312.001 17.5853 311.293 16.996ZM312.653 32.024C312.521 32.024 312.396 31.9587 312.32 31.8493L308.659 26.5614H308.435H304.891C304.667 26.5614 304.487 26.7427 304.487 26.9667V31.6187C304.487 31.8427 304.305 32.024 304.081 32.024H300.353C300.129 32.024 299.948 31.8427 299.948 31.6187V12.8227C299.948 12.5974 300.129 12.4173 300.353 12.4173H308.435C310.172 12.4173 311.68 12.7053 312.959 13.2853C314.239 13.8627 315.223 14.6853 315.915 15.7507C316.604 16.8133 316.951 18.0747 316.951 19.532C316.951 20.9867 316.6 22.244 315.9 23.2987C315.279 24.232 314.429 24.9733 313.347 25.52C313.127 25.632 313.044 25.904 313.187 26.1067L316.871 31.3867C317.057 31.656 316.867 32.024 316.539 32.024H312.653Z" fill="#6E6D70"></path> <path d="M335.969 27.696C336.903 27.164 337.636 26.4214 338.168 25.4694C338.7 24.5174 338.967 23.4347 338.967 22.22C338.967 21.0067 338.7 19.924 338.168 18.9694C337.636 18.0187 336.903 17.276 335.969 16.744C335.036 16.2134 333.989 15.9454 332.832 15.9454C331.673 15.9454 330.628 16.2134 329.696 16.744C328.761 17.276 328.029 18.0187 327.496 18.9694C326.964 19.924 326.699 21.0067 326.699 22.22C326.699 23.4347 326.964 24.5174 327.496 25.4694C328.029 26.4214 328.761 27.164 329.696 27.696C330.628 28.228 331.673 28.4934 332.832 28.4934C333.989 28.4934 335.036 28.228 335.969 27.696ZM327.328 31.044C325.695 30.1654 324.416 28.956 323.491 27.416C322.567 25.8747 322.104 24.144 322.104 22.22C322.104 20.2974 322.567 18.5654 323.491 17.024C324.416 15.484 325.695 14.2747 327.328 13.3974C328.963 12.52 330.797 12.0814 332.832 12.0814C334.868 12.0814 336.697 12.52 338.321 13.3974C339.947 14.2747 341.225 15.484 342.159 17.024C343.093 18.5654 343.56 20.2974 343.56 22.22C343.56 24.144 343.093 25.8747 342.159 27.416C341.225 28.956 339.947 30.1654 338.321 31.044C336.697 31.9214 334.868 32.36 332.832 32.36C330.797 32.36 328.963 31.9214 327.328 31.044Z" fill="#6E6D70"></path> </svg> 